<svg width="53" height="52" viewBox="0 0 53 52" fill="none" xmlns="http://www.w3.org/2000/svg">
<circle cx="26.5" cy="26" r="25.5" stroke="#0E150E"/>
<path fill-rule="evenodd" clip-rule="evenodd" d="M26.9999 15.25C24.9288 15.25 23.2499 16.9289 23.2499 19V20.0006C21.355 20.0332 19.7385 21.3938 19.3881 23.2628L17.8881 31.2628C17.4265 33.7245 19.315 36 21.8196 36H32.1802C34.6847 36 36.5732 33.7245 36.1117 31.2628L34.6117 23.2628C34.2612 21.3938 32.6448 20.0332 30.7499 20.0006V19C30.7499 16.9289 29.0709 15.25 26.9999 15.25ZM29.2499 20V19C29.2499 17.7574 28.2425 16.75 26.9999 16.75C25.7572 16.75 24.7499 17.7574 24.7499 19V20H29.2499Z" fill="#0E150E"/>
</svg>
